<mxfile host="app.diagrams.net" agent="Mozilla/5.0 (Windows NT 10.0; Win64; x64) AppleWebKit/537.36 (KHTML, like Gecko) Chrome/139.0.0.0 Safari/537.36" version="28.1.1">
  <diagram name="Trang-1" id="EfAVnAqhPcbXmz2mvQTJ">
    <mxGraphModel dx="1256" dy="1792" grid="1" gridSize="10" guides="1" tooltips="1" connect="1" arrows="1" fold="1" page="1" pageScale="1" pageWidth="827" pageHeight="1169" math="0" shadow="0">
      <root>
        <mxCell id="0" />
        <mxCell id="1" parent="0" />
        <mxCell id="sz8Plf3pMRtsqvv7Xagy-1" value="SERVER" style="ellipse;shape=cloud;whiteSpace=wrap;html=1;fillColor=#cce5ff;strokeColor=#36393d;fontStyle=1;fontSize=23;" vertex="1" parent="1">
          <mxGeometry x="350" y="-132.4" width="280" height="140" as="geometry" />
        </mxCell>
        <mxCell id="sz8Plf3pMRtsqvv7Xagy-18" value="" style="edgeStyle=orthogonalEdgeStyle;rounded=0;orthogonalLoop=1;jettySize=auto;html=1;" edge="1" parent="1" source="sz8Plf3pMRtsqvv7Xagy-2" target="sz8Plf3pMRtsqvv7Xagy-1">
          <mxGeometry relative="1" as="geometry" />
        </mxCell>
        <mxCell id="sz8Plf3pMRtsqvv7Xagy-2" value="&lt;font style=&quot;font-size: 13px;&quot;&gt;&lt;b&gt;&lt;u&gt;Khai báo thông SP và chip id&lt;/u&gt;&lt;/b&gt;&lt;/font&gt;" style="swimlane;fontStyle=0;childLayout=stackLayout;horizontal=1;startSize=30;horizontalStack=0;resizeParent=1;resizeParentMax=0;resizeLast=0;collapsible=1;marginBottom=0;whiteSpace=wrap;html=1;miterlimit=4;backgroundOutline=0;" vertex="1" parent="1">
          <mxGeometry x="180" y="200" width="210" height="150" as="geometry">
            <mxRectangle x="260" y="200" width="220" height="30" as="alternateBounds" />
          </mxGeometry>
        </mxCell>
        <mxCell id="sz8Plf3pMRtsqvv7Xagy-3" value="Item 1 + xx001" style="text;strokeColor=#36393d;fillColor=#cdeb8b;align=left;verticalAlign=middle;spacingLeft=4;spacingRight=4;overflow=hidden;points=[[0,0.5],[1,0.5]];portConstraint=eastwest;rotatable=0;whiteSpace=wrap;html=1;" vertex="1" parent="sz8Plf3pMRtsqvv7Xagy-2">
          <mxGeometry y="30" width="210" height="30" as="geometry" />
        </mxCell>
        <mxCell id="sz8Plf3pMRtsqvv7Xagy-4" value="Item 2 + xx002" style="text;strokeColor=#d6b656;fillColor=#fff2cc;align=left;verticalAlign=middle;spacingLeft=4;spacingRight=4;overflow=hidden;points=[[0,0.5],[1,0.5]];portConstraint=eastwest;rotatable=0;whiteSpace=wrap;html=1;" vertex="1" parent="sz8Plf3pMRtsqvv7Xagy-2">
          <mxGeometry y="60" width="210" height="30" as="geometry" />
        </mxCell>
        <mxCell id="sz8Plf3pMRtsqvv7Xagy-5" value="Item 3 + xx003" style="text;strokeColor=#82b366;fillColor=#d5e8d4;align=left;verticalAlign=middle;spacingLeft=4;spacingRight=4;overflow=hidden;points=[[0,0.5],[1,0.5]];portConstraint=eastwest;rotatable=0;whiteSpace=wrap;html=1;" vertex="1" parent="sz8Plf3pMRtsqvv7Xagy-2">
          <mxGeometry y="90" width="210" height="30" as="geometry" />
        </mxCell>
        <mxCell id="sz8Plf3pMRtsqvv7Xagy-112" value="Item 4 + xx004" style="text;strokeColor=#36393d;fillColor=#ffff88;align=left;verticalAlign=middle;spacingLeft=4;spacingRight=4;overflow=hidden;points=[[0,0.5],[1,0.5]];portConstraint=eastwest;rotatable=0;whiteSpace=wrap;html=1;" vertex="1" parent="sz8Plf3pMRtsqvv7Xagy-2">
          <mxGeometry y="120" width="210" height="30" as="geometry" />
        </mxCell>
        <mxCell id="sz8Plf3pMRtsqvv7Xagy-12" value="KHU VỰC KHO" style="swimlane;childLayout=stackLayout;resizeParent=1;resizeParentMax=0;startSize=20;horizontal=0;horizontalStack=1;" vertex="1" parent="1">
          <mxGeometry x="592" y="200" width="370" height="360" as="geometry" />
        </mxCell>
        <mxCell id="sz8Plf3pMRtsqvv7Xagy-13" value="KHO 1" style="swimlane;startSize=20;" vertex="1" parent="sz8Plf3pMRtsqvv7Xagy-12">
          <mxGeometry x="20" width="150" height="360" as="geometry" />
        </mxCell>
        <mxCell id="sz8Plf3pMRtsqvv7Xagy-65" value="Item 1 + xx001" style="shape=mxgraph.ibm.box;prType=zone;fontStyle=0;verticalAlign=top;align=left;spacingLeft=32;spacingTop=4;fillColor=#cdeb8b;rounded=0;whiteSpace=wrap;html=1;strokeColor=#36393d;strokeWidth=1;dashed=0;container=1;spacing=-4;collapsible=0;expand=0;recursiveResize=0;" vertex="1" parent="sz8Plf3pMRtsqvv7Xagy-13">
          <mxGeometry x="5" y="70" width="135" height="30" as="geometry" />
        </mxCell>
        <mxCell id="sz8Plf3pMRtsqvv7Xagy-116" value="" style="pointerEvents=1;shadow=0;dashed=0;html=1;strokeColor=none;fillColor=#4495D1;labelPosition=center;verticalLabelPosition=bottom;verticalAlign=top;align=center;outlineConnect=0;shape=mxgraph.veeam.cpu;" vertex="1" parent="sz8Plf3pMRtsqvv7Xagy-65">
          <mxGeometry x="110" y="3.619999999999999" width="22.4" height="22.75" as="geometry" />
        </mxCell>
        <mxCell id="sz8Plf3pMRtsqvv7Xagy-114" value="Item 4 + xx004" style="shape=mxgraph.ibm.box;prType=zone;fontStyle=0;verticalAlign=top;align=left;spacingLeft=32;spacingTop=4;fillColor=#ffff88;rounded=0;whiteSpace=wrap;html=1;strokeColor=#36393d;strokeWidth=1;dashed=0;container=1;spacing=-4;collapsible=0;expand=0;recursiveResize=0;" vertex="1" parent="sz8Plf3pMRtsqvv7Xagy-13">
          <mxGeometry x="5" y="111" width="135" height="30" as="geometry" />
        </mxCell>
        <mxCell id="sz8Plf3pMRtsqvv7Xagy-119" value="" style="pointerEvents=1;shadow=0;dashed=0;html=1;strokeColor=none;fillColor=#4495D1;labelPosition=center;verticalLabelPosition=bottom;verticalAlign=top;align=center;outlineConnect=0;shape=mxgraph.veeam.cpu;" vertex="1" parent="sz8Plf3pMRtsqvv7Xagy-114">
          <mxGeometry x="110" y="3.6200000000000045" width="22.4" height="22.75" as="geometry" />
        </mxCell>
        <mxCell id="sz8Plf3pMRtsqvv7Xagy-130" value="" style="html=1;verticalLabelPosition=bottom;align=center;labelBackgroundColor=#ffffff;verticalAlign=top;strokeWidth=2;strokeColor=#0080F0;shadow=0;dashed=0;shape=mxgraph.ios7.icons.wifi;pointerEvents=1;rotation=-195;" vertex="1" parent="sz8Plf3pMRtsqvv7Xagy-13">
          <mxGeometry x="18" y="30" width="29.7" height="21" as="geometry" />
        </mxCell>
        <mxCell id="sz8Plf3pMRtsqvv7Xagy-14" value="" style="swimlane;startSize=20;" vertex="1" collapsed="1" parent="sz8Plf3pMRtsqvv7Xagy-12">
          <mxGeometry x="170" width="50" height="360" as="geometry">
            <mxRectangle x="140" width="120" height="280" as="alternateBounds" />
          </mxGeometry>
        </mxCell>
        <mxCell id="sz8Plf3pMRtsqvv7Xagy-15" value="KHO 2" style="swimlane;startSize=20;" vertex="1" parent="sz8Plf3pMRtsqvv7Xagy-12">
          <mxGeometry x="220" width="150" height="360" as="geometry" />
        </mxCell>
        <mxCell id="sz8Plf3pMRtsqvv7Xagy-66" value="Item 2 + xx002" style="shape=mxgraph.ibm.box;prType=zone;fontStyle=0;verticalAlign=top;align=left;spacingLeft=32;spacingTop=4;fillColor=#fff2cc;rounded=0;whiteSpace=wrap;html=1;strokeColor=#d6b656;strokeWidth=1;dashed=0;container=1;spacing=-4;collapsible=0;expand=0;recursiveResize=0;" vertex="1" parent="sz8Plf3pMRtsqvv7Xagy-15">
          <mxGeometry x="5" y="70" width="135" height="30" as="geometry" />
        </mxCell>
        <mxCell id="sz8Plf3pMRtsqvv7Xagy-120" value="" style="pointerEvents=1;shadow=0;dashed=0;html=1;strokeColor=none;fillColor=#4495D1;labelPosition=center;verticalLabelPosition=bottom;verticalAlign=top;align=center;outlineConnect=0;shape=mxgraph.veeam.cpu;" vertex="1" parent="sz8Plf3pMRtsqvv7Xagy-66">
          <mxGeometry x="112.60000000000002" y="3.6200000000000045" width="22.4" height="22.75" as="geometry" />
        </mxCell>
        <mxCell id="sz8Plf3pMRtsqvv7Xagy-67" value="Item 3 + xx003" style="shape=mxgraph.ibm.box;prType=zone;fontStyle=0;verticalAlign=top;align=left;spacingLeft=32;spacingTop=4;fillColor=#d5e8d4;rounded=0;whiteSpace=wrap;html=1;strokeColor=#82b366;strokeWidth=1;dashed=0;container=1;spacing=-4;collapsible=0;expand=0;recursiveResize=0;" vertex="1" parent="sz8Plf3pMRtsqvv7Xagy-15">
          <mxGeometry x="5" y="110" width="135" height="30" as="geometry" />
        </mxCell>
        <mxCell id="sz8Plf3pMRtsqvv7Xagy-121" value="" style="pointerEvents=1;shadow=0;dashed=0;html=1;strokeColor=none;fillColor=#4495D1;labelPosition=center;verticalLabelPosition=bottom;verticalAlign=top;align=center;outlineConnect=0;shape=mxgraph.veeam.cpu;" vertex="1" parent="sz8Plf3pMRtsqvv7Xagy-67">
          <mxGeometry x="112.60000000000002" y="4.6200000000000045" width="22.4" height="22.75" as="geometry" />
        </mxCell>
        <mxCell id="sz8Plf3pMRtsqvv7Xagy-131" value="" style="html=1;verticalLabelPosition=bottom;align=center;labelBackgroundColor=#ffffff;verticalAlign=top;strokeWidth=2;strokeColor=#0080F0;shadow=0;dashed=0;shape=mxgraph.ios7.icons.wifi;pointerEvents=1;rotation=-195;" vertex="1" parent="sz8Plf3pMRtsqvv7Xagy-15">
          <mxGeometry x="78.00159849396914" y="29.99568399580764" width="29.7" height="21" as="geometry" />
        </mxCell>
        <mxCell id="sz8Plf3pMRtsqvv7Xagy-29" value="" style="swimlane;childLayout=stackLayout;horizontal=1;fillColor=none;horizontalStack=1;resizeParent=1;resizeParentMax=0;resizeLast=0;collapsible=0;strokeColor=none;stackBorder=10;stackSpacing=-12;resizable=1;align=center;points=[];whiteSpace=wrap;html=1;fontSize=18;" vertex="1" parent="1">
          <mxGeometry x="390" y="210" width="200" height="80" as="geometry" />
        </mxCell>
        <mxCell id="sz8Plf3pMRtsqvv7Xagy-30" value="&lt;font style=&quot;font-size: 16px;&quot;&gt;Nhập kho&lt;/font&gt;" style="shape=step;perimeter=stepPerimeter;fixedSize=1;points=[];whiteSpace=wrap;html=1;strokeColor=#33FF33;strokeWidth=3;" vertex="1" parent="sz8Plf3pMRtsqvv7Xagy-29">
          <mxGeometry x="10" y="33" width="180" height="37" as="geometry" />
        </mxCell>
        <mxCell id="sz8Plf3pMRtsqvv7Xagy-40" value="" style="edgeStyle=entityRelationEdgeStyle;fontSize=12;html=1;endArrow=ERzeroToMany;endFill=1;startArrow=ERzeroToMany;rounded=0;entryX=0.924;entryY=0.431;entryDx=0;entryDy=0;entryPerimeter=0;strokeWidth=2;" edge="1" parent="1" source="sz8Plf3pMRtsqvv7Xagy-118" target="sz8Plf3pMRtsqvv7Xagy-1">
          <mxGeometry width="100" height="100" relative="1" as="geometry">
            <mxPoint x="669" y="230" as="sourcePoint" />
            <mxPoint x="730" y="70" as="targetPoint" />
            <Array as="points">
              <mxPoint x="669" y="190" />
              <mxPoint x="740" y="230" />
              <mxPoint x="790" y="190" />
              <mxPoint x="850" y="70" />
              <mxPoint x="750" y="150" />
              <mxPoint x="770" y="150" />
              <mxPoint x="810" y="180" />
              <mxPoint x="770" y="110" />
              <mxPoint x="833.12" y="144.32" />
              <mxPoint x="813.12" y="134.32" />
              <mxPoint x="771" y="136" />
              <mxPoint x="760" y="90" />
              <mxPoint x="660" y="80" />
              <mxPoint x="801" y="56" />
              <mxPoint x="853.12" y="124.32" />
              <mxPoint x="853.12" y="114.32" />
              <mxPoint x="853.12" y="304.32" />
              <mxPoint x="793.12" y="64.32" />
              <mxPoint x="813.12" y="74.32" />
              <mxPoint x="803.12" y="84.32" />
              <mxPoint x="813.12" y="104.32" />
              <mxPoint x="828.12" y="134.32" />
              <mxPoint x="783.12" y="24.32" />
              <mxPoint x="813.12" y="134.32" />
              <mxPoint x="813.12" y="114.32" />
              <mxPoint x="784.3199999999999" y="96.32" />
              <mxPoint x="833.12" y="114.32" />
              <mxPoint x="813.12" y="124.32" />
              <mxPoint x="823.12" y="114.32" />
              <mxPoint x="834.32" y="76.32" />
              <mxPoint x="844.32" y="76.32" />
              <mxPoint x="804.32" y="46.32" />
            </Array>
          </mxGeometry>
        </mxCell>
        <mxCell id="sz8Plf3pMRtsqvv7Xagy-42" value="" style="edgeStyle=entityRelationEdgeStyle;fontSize=12;html=1;endArrow=ERzeroToMany;endFill=1;startArrow=ERzeroToMany;rounded=0;horizontal=1;verticalAlign=top;entryX=0.931;entryY=0.431;entryDx=0;entryDy=0;entryPerimeter=0;strokeWidth=2;" edge="1" parent="1" target="sz8Plf3pMRtsqvv7Xagy-1">
          <mxGeometry width="100" height="100" relative="1" as="geometry">
            <mxPoint x="940" y="170" as="sourcePoint" />
            <mxPoint x="720" y="90" as="targetPoint" />
            <Array as="points">
              <mxPoint x="941" y="190" />
              <mxPoint x="790" y="100" />
              <mxPoint x="900" y="140" />
              <mxPoint x="820" y="120" />
              <mxPoint x="921" y="150" />
              <mxPoint x="780" y="130" />
              <mxPoint x="961" y="180" />
              <mxPoint x="820" y="80" />
              <mxPoint x="800" y="120" />
              <mxPoint x="921" y="110" />
              <mxPoint x="984.12" y="144.32" />
              <mxPoint x="964.12" y="134.32" />
              <mxPoint x="922" y="136" />
              <mxPoint x="911" y="90" />
              <mxPoint x="811" y="80" />
              <mxPoint x="952" y="56" />
              <mxPoint x="1004.12" y="124.32" />
              <mxPoint x="1004.12" y="114.32" />
              <mxPoint x="1004.12" y="304.32" />
              <mxPoint x="944.12" y="64.32" />
              <mxPoint x="964.12" y="74.32" />
              <mxPoint x="954.12" y="84.32" />
              <mxPoint x="964.12" y="104.32" />
              <mxPoint x="979.12" y="134.32" />
              <mxPoint x="934.12" y="24.319999999999993" />
              <mxPoint x="964.12" y="134.32" />
              <mxPoint x="964.12" y="114.32" />
              <mxPoint x="935.3199999999999" y="96.32" />
              <mxPoint x="984.12" y="114.32" />
              <mxPoint x="964.12" y="124.32" />
              <mxPoint x="974.12" y="114.32" />
              <mxPoint x="985.32" y="76.32" />
              <mxPoint x="995.32" y="76.32" />
              <mxPoint x="955.32" y="46.31999999999999" />
            </Array>
          </mxGeometry>
        </mxCell>
        <mxCell id="sz8Plf3pMRtsqvv7Xagy-45" value="Gửi tín hiệu kho lưu SP" style="edgeLabel;html=1;align=left;verticalAlign=middle;resizable=0;points=[];fontSize=14;fontStyle=1" vertex="1" connectable="0" parent="sz8Plf3pMRtsqvv7Xagy-42">
          <mxGeometry x="0.3148" relative="1" as="geometry">
            <mxPoint x="-57" as="offset" />
          </mxGeometry>
        </mxCell>
        <mxCell id="sz8Plf3pMRtsqvv7Xagy-80" value="" style="edgeStyle=orthogonalEdgeStyle;rounded=0;orthogonalLoop=1;jettySize=auto;html=1;" edge="1" parent="1" source="sz8Plf3pMRtsqvv7Xagy-43" target="sz8Plf3pMRtsqvv7Xagy-75">
          <mxGeometry relative="1" as="geometry" />
        </mxCell>
        <mxCell id="sz8Plf3pMRtsqvv7Xagy-43" value="Xuất kho&lt;div&gt;(Có phiếu xuất)&lt;/div&gt;" style="shape=step;perimeter=stepPerimeter;fixedSize=1;points=[];whiteSpace=wrap;html=1;strokeColor=#33FF33;strokeWidth=3;fontSize=13;" vertex="1" parent="1">
          <mxGeometry x="978" y="311" width="162" height="40" as="geometry" />
        </mxCell>
        <mxCell id="sz8Plf3pMRtsqvv7Xagy-79" value="" style="edgeStyle=orthogonalEdgeStyle;rounded=0;orthogonalLoop=1;jettySize=auto;html=1;" edge="1" parent="1" source="sz8Plf3pMRtsqvv7Xagy-47" target="sz8Plf3pMRtsqvv7Xagy-43">
          <mxGeometry relative="1" as="geometry" />
        </mxCell>
        <mxCell id="sz8Plf3pMRtsqvv7Xagy-95" value="" style="edgeStyle=orthogonalEdgeStyle;rounded=0;orthogonalLoop=1;jettySize=auto;html=1;" edge="1" parent="1" source="sz8Plf3pMRtsqvv7Xagy-47" target="sz8Plf3pMRtsqvv7Xagy-43">
          <mxGeometry relative="1" as="geometry" />
        </mxCell>
        <mxCell id="sz8Plf3pMRtsqvv7Xagy-47" value="" style="points=[[0.35,0,0],[0.98,0.51,0],[1,0.71,0],[0.67,1,0],[0,0.795,0],[0,0.65,0]];verticalLabelPosition=bottom;sketch=0;html=1;verticalAlign=top;aspect=fixed;align=center;pointerEvents=1;shape=mxgraph.cisco19.user;fillColor=#005073;strokeColor=none;" vertex="1" parent="1">
          <mxGeometry x="1009" y="392.75" width="100" height="100" as="geometry" />
        </mxCell>
        <mxCell id="sz8Plf3pMRtsqvv7Xagy-71" value="Nhập kho" style="shape=step;perimeter=stepPerimeter;fixedSize=1;points=[];whiteSpace=wrap;html=1;direction=west;strokeColor=#33FF33;strokeWidth=3;" vertex="1" parent="1">
          <mxGeometry x="990" y="530" width="150" height="40" as="geometry" />
        </mxCell>
        <mxCell id="sz8Plf3pMRtsqvv7Xagy-99" value="" style="edgeStyle=orthogonalEdgeStyle;rounded=0;orthogonalLoop=1;jettySize=auto;html=1;entryX=0;entryY=0.5;entryDx=0;entryDy=0;fillColor=#ffcc99;strokeColor=#FF9933;strokeWidth=3;" edge="1" parent="1" source="sz8Plf3pMRtsqvv7Xagy-75" target="sz8Plf3pMRtsqvv7Xagy-87">
          <mxGeometry relative="1" as="geometry">
            <mxPoint x="1283.5" y="325.00000000000045" as="targetPoint" />
          </mxGeometry>
        </mxCell>
        <mxCell id="sz8Plf3pMRtsqvv7Xagy-128" style="edgeStyle=orthogonalEdgeStyle;rounded=0;orthogonalLoop=1;jettySize=auto;html=1;entryX=0.159;entryY=0.515;entryDx=0;entryDy=0;entryPerimeter=0;" edge="1" parent="1" source="sz8Plf3pMRtsqvv7Xagy-75" target="sz8Plf3pMRtsqvv7Xagy-71">
          <mxGeometry relative="1" as="geometry">
            <mxPoint x="1160" y="560" as="targetPoint" />
            <Array as="points">
              <mxPoint x="1216" y="550" />
              <mxPoint x="1160" y="550" />
            </Array>
          </mxGeometry>
        </mxCell>
        <mxCell id="sz8Plf3pMRtsqvv7Xagy-75" value="" style="sketch=0;html=1;aspect=fixed;strokeColor=none;shadow=0;fillColor=#3B8DF1;verticalAlign=top;labelPosition=center;verticalLabelPosition=bottom;shape=mxgraph.gcp2.check_2" vertex="1" parent="1">
          <mxGeometry x="1192" y="390" width="48.5" height="48.5" as="geometry" />
        </mxCell>
        <mxCell id="sz8Plf3pMRtsqvv7Xagy-76" value="Warning" style="html=1;whiteSpace=wrap;strokeColor=#b85450;fillColor=#f8cecc;labelPosition=center;verticalLabelPosition=middle;verticalAlign=top;align=center;fontSize=12;outlineConnect=0;spacingTop=-6;sketch=0;shape=mxgraph.sitemap.warning;" vertex="1" parent="1">
          <mxGeometry x="1160" y="219" width="70" height="40" as="geometry" />
        </mxCell>
        <mxCell id="sz8Plf3pMRtsqvv7Xagy-85" value="" style="edgeStyle=orthogonalEdgeStyle;rounded=0;orthogonalLoop=1;jettySize=auto;html=1;" edge="1" parent="1" source="sz8Plf3pMRtsqvv7Xagy-84" target="sz8Plf3pMRtsqvv7Xagy-76">
          <mxGeometry relative="1" as="geometry" />
        </mxCell>
        <mxCell id="sz8Plf3pMRtsqvv7Xagy-84" value="Xuất kho&lt;div&gt;(Không có phiếu xuất)&lt;/div&gt;" style="shape=step;perimeter=stepPerimeter;fixedSize=1;points=[];whiteSpace=wrap;html=1;strokeColor=#FF3333;strokeWidth=3;fontSize=13;" vertex="1" parent="1">
          <mxGeometry x="980" y="218" width="160" height="40" as="geometry" />
        </mxCell>
        <mxCell id="sz8Plf3pMRtsqvv7Xagy-104" value="" style="edgeStyle=orthogonalEdgeStyle;rounded=0;orthogonalLoop=1;jettySize=auto;html=1;exitX=0.585;exitY=0.006;exitDx=0;exitDy=0;exitPerimeter=0;entryX=0.5;entryY=1;entryDx=0;entryDy=0;strokeColor=#FF8000;strokeWidth=3;" edge="1" parent="1" source="sz8Plf3pMRtsqvv7Xagy-87" target="sz8Plf3pMRtsqvv7Xagy-102">
          <mxGeometry relative="1" as="geometry">
            <mxPoint x="1480" y="107" as="targetPoint" />
            <Array as="points">
              <mxPoint x="1480" y="360" />
            </Array>
          </mxGeometry>
        </mxCell>
        <mxCell id="sz8Plf3pMRtsqvv7Xagy-87" value="&lt;font style=&quot;font-size: 21px;&quot;&gt;Bán hàng&lt;/font&gt;" style="shape=hexagon;perimeter=hexagonPerimeter2;whiteSpace=wrap;html=1;fixedSize=1;fillColor=#ffe6cc;strokeColor=#d79b00;strokeWidth=3;" vertex="1" parent="1">
          <mxGeometry x="1360" y="359.25" width="200" height="110" as="geometry" />
        </mxCell>
        <mxCell id="sz8Plf3pMRtsqvv7Xagy-88" value="" style="html=1;verticalLabelPosition=bottom;align=center;labelBackgroundColor=#ffffff;verticalAlign=top;strokeWidth=2;strokeColor=#0080F0;shadow=0;dashed=0;shape=mxgraph.ios7.icons.shopping_cart;" vertex="1" parent="1">
          <mxGeometry x="1500" y="367.25" width="30" height="25.5" as="geometry" />
        </mxCell>
        <mxCell id="sz8Plf3pMRtsqvv7Xagy-102" value="Bảo hành" style="ellipse;whiteSpace=wrap;html=1;aspect=fixed;strokeWidth=3;fontSize=17;fontStyle=1;fillColor=#ffe6cc;strokeColor=#d79b00;" vertex="1" parent="1">
          <mxGeometry x="1390" y="-70" width="180" height="180" as="geometry" />
        </mxCell>
        <mxCell id="sz8Plf3pMRtsqvv7Xagy-107" value="" style="points=[];aspect=fixed;html=1;align=center;shadow=0;dashed=0;fillColor=#FF6A00;strokeColor=none;shape=mxgraph.alibaba_cloud.ccs_customer_service_02;" vertex="1" parent="1">
          <mxGeometry x="1489" y="-70" width="52.2" height="55.2" as="geometry" />
        </mxCell>
        <mxCell id="sz8Plf3pMRtsqvv7Xagy-108" value="Kiểm tra SP theo chip ID để bảo hành" style="edgeStyle=orthogonalEdgeStyle;rounded=0;orthogonalLoop=1;jettySize=auto;html=1;entryX=0.96;entryY=0.7;entryDx=0;entryDy=0;entryPerimeter=0;fontSize=14;strokeWidth=3;fillColor=#ffcc99;strokeColor=#FF8000;fontStyle=1" edge="1" parent="1" source="sz8Plf3pMRtsqvv7Xagy-102" target="sz8Plf3pMRtsqvv7Xagy-1">
          <mxGeometry relative="1" as="geometry" />
        </mxCell>
        <mxCell id="sz8Plf3pMRtsqvv7Xagy-117" value="" style="shape=mxgraph.cisco.wireless.antenna;html=1;pointerEvents=1;dashed=0;fillColor=#cdeb8b;strokeColor=#00FF00;strokeWidth=2;verticalLabelPosition=bottom;verticalAlign=top;align=center;outlineConnect=0;" vertex="1" parent="1">
          <mxGeometry x="870" y="160" width="54" height="40" as="geometry" />
        </mxCell>
        <mxCell id="sz8Plf3pMRtsqvv7Xagy-118" value="" style="shape=mxgraph.cisco.wireless.antenna;html=1;pointerEvents=1;dashed=0;fillColor=#cdeb8b;strokeColor=#00FF00;strokeWidth=2;verticalLabelPosition=bottom;verticalAlign=top;align=center;outlineConnect=0;" vertex="1" parent="1">
          <mxGeometry x="598" y="160" width="54" height="40" as="geometry" />
        </mxCell>
        <mxCell id="sz8Plf3pMRtsqvv7Xagy-124" value="&lt;font style=&quot;font-size: 16px; color: rgb(0, 0, 0);&quot;&gt;&lt;b style=&quot;&quot;&gt;Bắt đầu&lt;/b&gt;&lt;/font&gt;" style="rounded=1;whiteSpace=wrap;html=1;strokeColor=#33FF99;fillColor=#66FF66;" vertex="1" parent="1">
          <mxGeometry x="220" y="359.25" width="100" height="45" as="geometry" />
        </mxCell>
        <mxCell id="sz8Plf3pMRtsqvv7Xagy-125" value="Làm phiếu nhập kho để hệ thống ghi nhận SP có vào đúng kho hay không" style="rounded=1;whiteSpace=wrap;html=1;fontSize=13;fillColor=#FFFF66;" vertex="1" parent="1">
          <mxGeometry x="400" y="282" width="170" height="60" as="geometry" />
        </mxCell>
        <mxCell id="sz8Plf3pMRtsqvv7Xagy-126" value="Khi xuất kho sẽ kiểm tra ID trên SP đó có được phép ra khỏi không" style="rounded=1;whiteSpace=wrap;html=1;fontSize=13;fillColor=#FFFF66;" vertex="1" parent="1">
          <mxGeometry x="975" y="260" width="255" height="50" as="geometry" />
        </mxCell>
        <mxCell id="sz8Plf3pMRtsqvv7Xagy-127" value="Hệ thống RFID xác thực ID trên chip để biết SP đang ở kho nào và có vào đúng kho khi làm phiếu nhập kho không" style="rounded=1;whiteSpace=wrap;html=1;fontSize=13;fillColor=#FFFF66;" vertex="1" parent="1">
          <mxGeometry x="692" y="92" width="170" height="100" as="geometry" />
        </mxCell>
        <mxCell id="sz8Plf3pMRtsqvv7Xagy-129" style="edgeStyle=orthogonalEdgeStyle;rounded=0;orthogonalLoop=1;jettySize=auto;html=1;exitX=0.67;exitY=1;exitDx=0;exitDy=0;exitPerimeter=0;entryX=0.426;entryY=0.9;entryDx=0;entryDy=0;entryPerimeter=0;" edge="1" parent="1" source="sz8Plf3pMRtsqvv7Xagy-47" target="sz8Plf3pMRtsqvv7Xagy-71">
          <mxGeometry relative="1" as="geometry" />
        </mxCell>
        <mxCell id="sz8Plf3pMRtsqvv7Xagy-136" value="Khi nhập lại vào kho cũng phải làm phiếu nhập kho để khai báo" style="rounded=1;whiteSpace=wrap;html=1;fontSize=13;fillColor=#FFFF66;" vertex="1" parent="1">
          <mxGeometry x="990" y="570" width="255" height="50" as="geometry" />
        </mxCell>
        <mxCell id="sz8Plf3pMRtsqvv7Xagy-137" value="Khi bảo hành sẽ dựa vào chip id để tracking lại SP" style="rounded=1;whiteSpace=wrap;html=1;fontSize=13;fillColor=#FFFF66;" vertex="1" parent="1">
          <mxGeometry x="1135" y="30" width="255" height="70" as="geometry" />
        </mxCell>
        <mxCell id="sz8Plf3pMRtsqvv7Xagy-138" value="" style="shape=mxgraph.cisco.wireless.antenna;html=1;pointerEvents=1;dashed=0;fillColor=#cdeb8b;strokeColor=#00FF00;strokeWidth=2;verticalLabelPosition=bottom;verticalAlign=top;align=center;outlineConnect=0;" vertex="1" parent="1">
          <mxGeometry x="1420" y="-100" width="54" height="40" as="geometry" />
        </mxCell>
        <mxCell id="sz8Plf3pMRtsqvv7Xagy-139" value="Item 2 + xx002" style="shape=mxgraph.ibm.box;prType=zone;fontStyle=0;verticalAlign=top;align=left;spacingLeft=32;spacingTop=4;fillColor=#fff2cc;rounded=0;whiteSpace=wrap;html=1;strokeColor=#d6b656;strokeWidth=1;dashed=0;container=1;spacing=-4;collapsible=0;expand=0;recursiveResize=0;" vertex="1" parent="1">
          <mxGeometry x="1412.5" y="40" width="135" height="30" as="geometry" />
        </mxCell>
        <mxCell id="sz8Plf3pMRtsqvv7Xagy-140" value="" style="pointerEvents=1;shadow=0;dashed=0;html=1;strokeColor=none;fillColor=#4495D1;labelPosition=center;verticalLabelPosition=bottom;verticalAlign=top;align=center;outlineConnect=0;shape=mxgraph.veeam.cpu;" vertex="1" parent="sz8Plf3pMRtsqvv7Xagy-139">
          <mxGeometry x="112.60000000000002" y="3.6200000000000045" width="22.4" height="22.75" as="geometry" />
        </mxCell>
        <mxCell id="sz8Plf3pMRtsqvv7Xagy-141" value="" style="html=1;verticalLabelPosition=bottom;align=center;labelBackgroundColor=#ffffff;verticalAlign=top;strokeWidth=2;strokeColor=#0080F0;shadow=0;dashed=0;shape=mxgraph.ios7.icons.wifi;pointerEvents=1;rotation=-180;" vertex="1" parent="1">
          <mxGeometry x="1444.301598493969" y="-52.90431600419236" width="29.7" height="21" as="geometry" />
        </mxCell>
        <mxCell id="sz8Plf3pMRtsqvv7Xagy-143" value="&lt;font style=&quot;font-size: 14px;&quot;&gt;Sau khi bán sản phẩm, thì sẽ được chuyển sang chế độ bảo hành&amp;nbsp;&lt;/font&gt;" style="rounded=1;whiteSpace=wrap;html=1;fontSize=13;fillColor=#FFFF66;" vertex="1" parent="1">
          <mxGeometry x="1319.5" y="469.25" width="255" height="70" as="geometry" />
        </mxCell>
      </root>
    </mxGraphModel>
  </diagram>
</mxfile>
